<svg xmlns="http://www.w3.org/2000/svg" viewBox="0 0 96 96" role="img" aria-labelledby="title desc">
  <title id="title">林小北插画头像</title>
  <desc id="desc">蓝紫背景上的中性人物插画</desc>
  <defs>
    <linearGradient id="bg" x1="12" y1="8" x2="86" y2="91" gradientUnits="userSpaceOnUse">
      <stop stop-color="#DDEBFF"/>
      <stop offset="1" stop-color="#E9E2FF"/>
    </linearGradient>
    <linearGradient id="shirt" x1="22" y1="68" x2="77" y2="88" gradientUnits="userSpaceOnUse">
      <stop stop-color="#547EE7"/>
      <stop offset="1" stop-color="#7868D7"/>
    </linearGradient>
  </defs>
  <rect width="96" height="96" rx="26" fill="url(#bg)"/>
  <circle cx="72" cy="24" r="9" fill="#F6C961" opacity=".8"/>
  <path d="M20 89c2-17 13-27 28-27s26 10 28 27H20Z" fill="url(#shirt)"/>
  <path d="M36 58c3 7 7 10 12 10s10-3 13-10v18c-4 5-8 7-13 7s-9-2-12-7V58Z" fill="#F1C3A4"/>
  <ellipse cx="48" cy="43" rx="19" ry="23" fill="#F6D2B8"/>
  <path d="M29 42c0-17 8-27 21-27 11 0 19 8 19 21-8 0-14-4-18-11-4 8-11 13-22 15v2Z" fill="#333945"/>
  <path d="M31 43c2 11 8 19 17 19 9 0 16-8 19-20" fill="none" stroke="#E8B594" stroke-width="2" stroke-linecap="round"/>
  <circle cx="41" cy="43" r="1.8" fill="#343944"/>
  <circle cx="56" cy="43" r="1.8" fill="#343944"/>
  <path d="M43 52c3 2 7 2 10 0" fill="none" stroke="#C67878" stroke-width="2" stroke-linecap="round"/>
</svg>
