<svg xmlns="http://www.w3.org/2000/svg" viewBox="0 0 128 128" role="img" aria-label="iTime">
  <defs>
    <linearGradient id="itime-green" x1="0" x2="1" y1="0" y2="1">
      <stop offset="0" stop-color="#68c98b"/>
      <stop offset="1" stop-color="#90d668"/>
    </linearGradient>
    <linearGradient id="itime-violet" x1="0" x2="1" y1="1" y2="0">
      <stop offset="0" stop-color="#6658d7"/>
      <stop offset="1" stop-color="#8d7ae9"/>
    </linearGradient>
  </defs>
  <circle cx="64" cy="64" r="52" fill="#fff"/>
  <path d="M64 14a50 50 0 0 1 43 25L85 52A25 25 0 0 0 64 39Z" fill="url(#itime-violet)"/>
  <path d="M107 39a50 50 0 0 1-4 57L82 81a25 25 0 0 0 3-29Z" fill="#57b8b5"/>
  <path d="M103 96a50 50 0 0 1-76 4l19-18a25 25 0 0 0 36-1Z" fill="url(#itime-green)"/>
  <path d="M27 100a50 50 0 0 1 8-73l15 21a25 25 0 0 0-4 34Z" fill="#8dcf65"/>
</svg>
